<?xml version="1.0" encoding="UTF-8" standalone="no"?>
<!-- Created with Inkscape (http://www.inkscape.org/) -->

<svg
   width="100mm"
   height="100mm"
   viewBox="0 0 100 100"
   version="1.1"
   id="svg1"
   sodipodi:docname="logo.svg"
   inkscape:version="1.3 (0e150ed6c4, 2023-07-21)"
   xmlns:inkscape="http://www.inkscape.org/namespaces/inkscape"
   xmlns:sodipodi="http://sodipodi.sourceforge.net/DTD/sodipodi-0.dtd"
   xmlns="http://www.w3.org/2000/svg"
   xmlns:svg="http://www.w3.org/2000/svg">
  <sodipodi:namedview
     id="namedview1"
     pagecolor="#ffffff"
     bordercolor="#000000"
     borderopacity="0.25"
     inkscape:showpageshadow="2"
     inkscape:pageopacity="0.0"
     inkscape:pagecheckerboard="0"
     inkscape:deskcolor="#d1d1d1"
     inkscape:document-units="mm"
     inkscape:zoom="0.70110129"
     inkscape:cx="765.93783"
     inkscape:cy="89.145464"
     inkscape:window-width="1920"
     inkscape:window-height="1001"
     inkscape:window-x="-9"
     inkscape:window-y="-9"
     inkscape:window-maximized="1"
     inkscape:current-layer="layer1" />
  <defs
     id="defs1" />
  <g
     inkscape:label="Layer 1"
     inkscape:groupmode="layer"
     id="layer1">
    <ellipse
       style="fill:#ffcc00;stroke-width:0.264583"
       id="path1"
       cx="29.147778"
       cy="33.892685"
       rx="16.878242"
       ry="18.41263" />
    <path
       style="fill:#ffcc00;stroke-width:0.302933"
       d="m 25.484145,45.180839 c 0,0 -35.757859,36.555543 -13.475909,37.604983 22.281949,1.04944 72.049426,2.273787 72.583126,-3.847953 0.5337,-6.12174 14.00961,-41.97765 3.33562,-32.532682 -10.67399,9.444973 -62.442837,-1.224348 -62.442837,-1.224348 z"
       id="path14" />
    <path
       style="fill:#ffcc00;stroke-width:0.264583"
       d="m 80.555253,79.287716 c 0,0 15.877556,2.801921 10.273713,-33.356211"
       id="path15" />
    <path
       style="fill:#ff6600;stroke-width:0.264583"
       d="m 12.275086,32.422237 c 0,0 3.068771,6.938095 0.533699,6.404393 C 10.273713,38.292931 5.7372686,38.693206 6.8046673,36.158135 7.8720661,33.623062 13.20906,35.624434 12.275086,32.422237 Z"
       id="path16" />
    <ellipse
       style="fill:#1a1a1a;stroke-width:0.264583"
       id="path17"
       cx="25.017159"
       cy="29.220041"
       rx="2.2015102"
       ry="2.6684971" />
    <rect
       style="fill:#e6e6e6;stroke-width:0.270639"
       id="rect17"
       width="46.031574"
       height="17.589882"
       x="26.618256"
       y="57.039124" />
    <rect
       style="fill:#1a1a1a;stroke-width:0.264583"
       id="rect21-948"
       width="2.8019218"
       height="3.0687716"
       x="59.638916"
       y="70.850891" />
    <rect
       style="fill:#1a1a1a;stroke-width:0.264583"
       id="rect21-87"
       width="2.8019218"
       height="3.0687716"
       x="63.392334"
       y="70.984222" />
    <rect
       style="fill:#1a1a1a;stroke-width:0.317249"
       id="rect21-05"
       width="4.0284147"
       height="3.0687716"
       x="67.408249"
       y="67.790764" />
    <rect
       style="fill:#1a1a1a;stroke-width:0.264583"
       id="rect21-07"
       width="2.8019218"
       height="3.0687716"
       x="32.43095"
       y="70.780136" />
    <rect
       style="fill:#1a1a1a;stroke-width:0.264583"
       id="rect21-37"
       width="2.8019218"
       height="3.0687716"
       x="36.158703"
       y="70.808853" />
    <rect
       style="fill:#1a1a1a;stroke-width:0.264583"
       id="rect21-70"
       width="2.8019218"
       height="3.0687716"
       x="39.896721"
       y="70.889877" />
    <rect
       style="fill:#1a1a1a;stroke-width:0.600437"
       id="rect21-11"
       width="14.430019"
       height="3.0687716"
       x="43.881847"
       y="70.856026" />
    <rect
       style="fill:#1a1a1a;stroke-width:0.354115"
       id="rect21-94"
       width="5.0190439"
       height="3.0687716"
       x="66.668884"
       y="71.136009" />
    <rect
       style="fill:#1a1a1a;stroke-width:0.264583"
       id="rect21-06"
       width="2.8019218"
       height="3.0687716"
       x="36.085865"
       y="64.28862" />
    <rect
       style="fill:#1a1a1a;stroke-width:0.264583"
       id="rect21-63"
       width="2.8019218"
       height="3.0687716"
       x="39.946949"
       y="64.312202" />
    <rect
       style="fill:#1a1a1a;stroke-width:0.264583"
       id="rect21-57"
       width="2.8019218"
       height="3.0687716"
       x="44.070538"
       y="64.28862" />
    <rect
       style="fill:#1a1a1a;stroke-width:0.264583"
       id="rect21-164"
       width="2.8019218"
       height="3.0687716"
       x="47.606548"
       y="64.335793" />
    <rect
       style="fill:#1a1a1a;stroke-width:0.264583"
       id="rect21-73"
       width="2.8019218"
       height="3.0687716"
       x="51.59375"
       y="64.293747" />
    <rect
       style="fill:#1a1a1a;stroke-width:0.264583"
       id="rect21-02"
       width="2.8019218"
       height="3.0687716"
       x="55.530727"
       y="64.270157" />
    <rect
       style="fill:#1a1a1a;stroke-width:0.264583"
       id="rect21-168"
       width="2.8019218"
       height="3.0687716"
       x="59.790699"
       y="64.312202" />
    <rect
       style="fill:#1a1a1a;stroke-width:0.264583"
       id="rect21-61"
       width="2.8019218"
       height="3.0687716"
       x="63.550228"
       y="64.317337" />
    <rect
       style="fill:#1a1a1a;stroke-width:0.264583"
       id="rect21-66"
       width="2.8019218"
       height="3.0687716"
       x="32.459667"
       y="67.392853" />
    <rect
       style="fill:#1a1a1a;stroke-width:0.264583"
       id="rect21-65"
       width="2.8019218"
       height="3.0687716"
       x="36.21101"
       y="67.49234" />
    <rect
       style="fill:#1a1a1a;stroke-width:0.264583"
       id="rect21-43"
       width="2.8019218"
       height="3.0687716"
       x="39.886459"
       y="67.615395" />
    <rect
       style="fill:#1a1a1a;stroke-width:0.264583"
       id="rect21-77"
       width="2.8019218"
       height="3.0687716"
       x="44.075672"
       y="67.539513" />
    <rect
       style="fill:#1a1a1a;stroke-width:0.264583"
       id="rect21-58"
       width="2.8019218"
       height="3.0687716"
       x="47.653721"
       y="67.46875" />
    <rect
       style="fill:#1a1a1a;stroke-width:0.264583"
       id="rect21-59"
       width="2.8019218"
       height="3.0687716"
       x="55.575821"
       y="67.482071" />
    <rect
       style="fill:#1a1a1a;stroke-width:0.264583"
       id="rect21-636"
       width="2.8019218"
       height="3.0687716"
       x="59.782513"
       y="67.46875" />
    <rect
       style="fill:#1a1a1a;stroke-width:0.264583"
       id="rect21-47"
       width="2.8019218"
       height="3.0687716"
       x="63.515396"
       y="67.515923" />
    <rect
       style="fill:#1a1a1a;stroke-width:0.264583"
       id="rect21-22"
       width="2.8019218"
       height="3.0687716"
       x="51.59375"
       y="67.46875" />
    <rect
       style="fill:#1a1a1a;stroke-width:0.264583"
       id="rect21-301"
       width="2.8019218"
       height="3.0687716"
       x="67.363037"
       y="61.096264" />
    <rect
       style="fill:#1a1a1a;stroke-width:0.264583"
       id="rect21-2"
       width="2.8019218"
       height="3.0687716"
       x="32.360191"
       y="60.948509" />
    <rect
       style="fill:#1a1a1a;stroke-width:0.264583"
       id="rect21-72"
       width="2.8019218"
       height="3.0687716"
       x="36.1064"
       y="61.084896" />
    <rect
       style="fill:#1a1a1a;stroke-width:0.264583"
       id="rect21-39"
       width="2.8019218"
       height="3.0687716"
       x="40.08847"
       y="61.066441" />
    <rect
       style="fill:#1a1a1a;stroke-width:0.264583"
       id="rect21-56"
       width="2.8019218"
       height="3.0687716"
       x="43.939285"
       y="61.042854" />
    <rect
       style="fill:#1a1a1a;stroke-width:0.264583"
       id="rect21-80"
       width="2.8019218"
       height="3.0687716"
       x="47.630135"
       y="61.071575" />
    <rect
       style="fill:#1a1a1a;stroke-width:0.264583"
       id="rect21-04"
       width="2.8019218"
       height="3.0687716"
       x="51.541443"
       y="61.014137" />
    <rect
       style="fill:#1a1a1a;stroke-width:0.264583"
       id="rect21-03"
       width="2.8019218"
       height="3.0687716"
       x="55.549179"
       y="61.071575" />
    <rect
       style="fill:#1a1a1a;stroke-width:0.264583"
       id="rect21-511"
       width="2.8019218"
       height="3.0687716"
       x="59.767113"
       y="60.982365" />
    <rect
       style="fill:#1a1a1a;stroke-width:0.264583"
       id="rect21-30"
       width="2.8019218"
       height="3.0687716"
       x="63.523586"
       y="61.029537" />
    <rect
       style="fill:#1a1a1a;stroke-width:0.396862"
       id="rect21-45"
       width="3.0141995"
       height="6.4180408"
       x="68.435791"
       y="61.090027" />
    <rect
       style="fill:#1a1a1a;stroke-width:0.264583"
       id="rect21"
       width="2.8019218"
       height="3.0687716"
       x="28.305883"
       y="57.683697" />
    <rect
       style="fill:#1a1a1a;stroke-width:0.264583"
       id="rect21-5"
       width="2.8019218"
       height="3.0687716"
       x="32.138939"
       y="57.674633" />
    <rect
       style="fill:#1a1a1a;stroke-width:0.264583"
       id="rect21-53"
       width="2.8019218"
       height="3.0687716"
       x="36.100891"
       y="57.679165" />
    <rect
       style="fill:#1a1a1a;stroke-width:0.264583"
       id="rect21-6"
       width="2.8019218"
       height="3.0687716"
       x="40.084164"
       y="57.558365" />
    <rect
       style="fill:#1a1a1a;stroke-width:0.264583"
       id="rect21-8"
       width="2.8019218"
       height="3.0687716"
       x="43.840908"
       y="57.522247" />
    <rect
       style="fill:#1a1a1a;stroke-width:0.264583"
       id="rect21-1"
       width="2.8019218"
       height="3.0687716"
       x="47.649689"
       y="57.522247" />
    <rect
       style="fill:#1a1a1a;stroke-width:0.264583"
       id="rect21-7"
       width="2.8019218"
       height="3.0687716"
       x="51.563076"
       y="57.480206" />
    <rect
       style="fill:#1a1a1a;stroke-width:0.264583"
       id="rect21-0"
       width="2.8019218"
       height="3.0687716"
       x="55.550282"
       y="57.574554" />
    <rect
       style="fill:#1a1a1a;stroke-width:0.264583"
       id="rect21-4"
       width="2.8019218"
       height="3.0687716"
       x="59.898491"
       y="57.466888" />
    <rect
       style="fill:#1a1a1a;stroke-width:0.264583"
       id="rect21-3"
       width="2.8019218"
       height="3.0687716"
       x="63.570885"
       y="57.424847" />
    <rect
       style="fill:#1a1a1a;stroke-width:0.316237"
       id="rect21-48"
       width="4.0027456"
       height="3.0687716"
       x="67.335922"
       y="57.480209" />
    <rect
       style="fill:#1a1a1a;stroke-width:0.305902"
       id="rect21-16"
       width="3.745378"
       height="3.0687716"
       x="28.300152"
       y="60.953644" />
    <rect
       style="fill:#1a1a1a;stroke-width:0.392776"
       id="rect21-08"
       width="6.1747775"
       height="3.0687716"
       x="28.187349"
       y="64.123512" />
    <rect
       style="fill:#1a1a1a;stroke-width:0.289064"
       id="rect21-9"
       width="3.3444092"
       height="3.0687716"
       x="28.310415"
       y="67.46875" />
    <rect
       style="fill:#1a1a1a;stroke-width:0.287018"
       id="rect21-51"
       width="3.2972364"
       height="3.0687716"
       x="28.381174"
       y="70.785263" />
    <path
       style="fill:none;stroke-width:0.264583;stroke:#d4aa00"
       d="m 25.473316,53.871346 c 0,0 -20.9447265,20.00127 -0.188691,22.831639 20.756036,2.83037 50.097521,3.396443 53.871347,-1.226492 3.773823,-4.622937 11.038437,-27.360229 4.339896,-22.454258 -6.698538,4.905973 -58.022552,0.849111 -58.022552,0.849111 z"
       id="path21" />
  </g>
</svg>
