<svg width="71" height="63" viewBox="0 0 71 63" fill="none" xmlns="http://www.w3.org/2000/svg">
<path fill-rule="evenodd" clip-rule="evenodd" d="M1.5 62.5H17.5L26.5 40.5H44L53 62.5H70L44 0.5H26.5L1.5 62.5ZM35.2609 11L29 27H41L35.2609 11Z" fill="black"/>
<path d="M17.5 62.5V63H17.8357L17.9628 62.6893L17.5 62.5ZM1.5 62.5L1.03628 62.313L0.75927 63H1.5V62.5ZM26.5 40.5V40H26.1643L26.0372 40.3107L26.5 40.5ZM44 40.5L44.4628 40.3107L44.3357 40H44V40.5ZM53 62.5L52.5372 62.6893L52.6643 63H53V62.5ZM70 62.5V63H70.7519L70.4611 62.3066L70 62.5ZM44 0.5L44.4611 0.306637L44.3325 0H44V0.5ZM26.5 0.5V0H26.1625L26.0363 0.313016L26.5 0.5ZM29 27L28.5344 26.8178L28.2674 27.5H29V27ZM35.2609 11L35.7315 10.8312L35.2812 9.57585L34.7952 10.8178L35.2609 11ZM41 27V27.5H41.7105L41.4706 26.8312L41 27ZM17.5 62H1.5V63H17.5V62ZM26.0372 40.3107L17.0372 62.3107L17.9628 62.6893L26.9628 40.6893L26.0372 40.3107ZM44 40H26.5V41H44V40ZM53.4628 62.3107L44.4628 40.3107L43.5372 40.6893L52.5372 62.6893L53.4628 62.3107ZM70 62H53V63H70V62ZM43.5389 0.693363L69.5389 62.6934L70.4611 62.3066L44.4611 0.306637L43.5389 0.693363ZM26.5 1H44V0H26.5V1ZM1.96372 62.687L26.9637 0.686984L26.0363 0.313016L1.03628 62.313L1.96372 62.687ZM29.4656 27.1822L35.7265 11.1822L34.7952 10.8178L28.5344 26.8178L29.4656 27.1822ZM41 26.5H29V27.5H41V26.5ZM34.7902 11.1688L40.5294 27.1688L41.4706 26.8312L35.7315 10.8312L34.7902 11.1688Z" fill="black"/>
</svg>
