<svg width="60" height="60" viewBox="0 0 60 60" fill="none" xmlns="http://www.w3.org/2000/svg">
<rect x="1" y="1" width="58" height="58" fill="#FFA902" fill-opacity="0.69" stroke="black" stroke-width="2"/>
<rect x="9" y="9" width="42" height="42" stroke="black" stroke-width="2"/>
<mask id="path-3-outside-1_33_5" maskUnits="userSpaceOnUse" x="25" y="24" width="10" height="12" fill="black">
<rect fill="white" x="25" y="24" width="10" height="12"/>
<path d="M29.2273 31.2727H30.3864L31.358 32.5511L31.6136 32.892L33.0625 34.8182H31.9034L30.9489 33.5398L30.7102 33.2159L29.2273 31.2727ZM33.4205 29.6364C33.4205 30.5568 33.2543 31.3523 32.9219 32.0227C32.5895 32.6932 32.1335 33.2102 31.554 33.5739C30.9744 33.9375 30.3125 34.1193 29.5682 34.1193C28.8239 34.1193 28.1619 33.9375 27.5824 33.5739C27.0028 33.2102 26.5469 32.6932 26.2145 32.0227C25.8821 31.3523 25.7159 30.5568 25.7159 29.6364C25.7159 28.7159 25.8821 27.9205 26.2145 27.25C26.5469 26.5795 27.0028 26.0625 27.5824 25.6989C28.1619 25.3352 28.8239 25.1534 29.5682 25.1534C30.3125 25.1534 30.9744 25.3352 31.554 25.6989C32.1335 26.0625 32.5895 26.5795 32.9219 27.25C33.2543 27.9205 33.4205 28.7159 33.4205 29.6364ZM32.3977 29.6364C32.3977 28.8807 32.2713 28.2429 32.0185 27.723C31.7685 27.2031 31.429 26.8097 31 26.5426C30.5739 26.2756 30.0966 26.142 29.5682 26.142C29.0398 26.142 28.5611 26.2756 28.1321 26.5426C27.706 26.8097 27.3665 27.2031 27.1136 27.723C26.8636 28.2429 26.7386 28.8807 26.7386 29.6364C26.7386 30.392 26.8636 31.0298 27.1136 31.5497C27.3665 32.0696 27.706 32.4631 28.1321 32.7301C28.5611 32.9972 29.0398 33.1307 29.5682 33.1307C30.0966 33.1307 30.5739 32.9972 31 32.7301C31.429 32.4631 31.7685 32.0696 32.0185 31.5497C32.2713 31.0298 32.3977 30.392 32.3977 29.6364Z"/>
</mask>
<path d="M29.2273 31.2727H30.3864L31.358 32.5511L31.6136 32.892L33.0625 34.8182H31.9034L30.9489 33.5398L30.7102 33.2159L29.2273 31.2727ZM33.4205 29.6364C33.4205 30.5568 33.2543 31.3523 32.9219 32.0227C32.5895 32.6932 32.1335 33.2102 31.554 33.5739C30.9744 33.9375 30.3125 34.1193 29.5682 34.1193C28.8239 34.1193 28.1619 33.9375 27.5824 33.5739C27.0028 33.2102 26.5469 32.6932 26.2145 32.0227C25.8821 31.3523 25.7159 30.5568 25.7159 29.6364C25.7159 28.7159 25.8821 27.9205 26.2145 27.25C26.5469 26.5795 27.0028 26.0625 27.5824 25.6989C28.1619 25.3352 28.8239 25.1534 29.5682 25.1534C30.3125 25.1534 30.9744 25.3352 31.554 25.6989C32.1335 26.0625 32.5895 26.5795 32.9219 27.25C33.2543 27.9205 33.4205 28.7159 33.4205 29.6364ZM32.3977 29.6364C32.3977 28.8807 32.2713 28.2429 32.0185 27.723C31.7685 27.2031 31.429 26.8097 31 26.5426C30.5739 26.2756 30.0966 26.142 29.5682 26.142C29.0398 26.142 28.5611 26.2756 28.1321 26.5426C27.706 26.8097 27.3665 27.2031 27.1136 27.723C26.8636 28.2429 26.7386 28.8807 26.7386 29.6364C26.7386 30.392 26.8636 31.0298 27.1136 31.5497C27.3665 32.0696 27.706 32.4631 28.1321 32.7301C28.5611 32.9972 29.0398 33.1307 29.5682 33.1307C30.0966 33.1307 30.5739 32.9972 31 32.7301C31.429 32.4631 31.7685 32.0696 32.0185 31.5497C32.2713 31.0298 32.3977 30.392 32.3977 29.6364Z" fill="black"/>
<path d="M29.2273 31.2727V30.7727H28.2167L28.8298 31.5761L29.2273 31.2727ZM30.3864 31.2727L30.7844 30.9702L30.6344 30.7727H30.3864V31.2727ZM31.358 32.5511L31.758 32.2511L31.756 32.2486L31.358 32.5511ZM31.6136 32.892L31.2136 33.192L31.2141 33.1926L31.6136 32.892ZM33.0625 34.8182V35.3182H34.0643L33.4621 34.5176L33.0625 34.8182ZM31.9034 34.8182L31.5028 35.1173L31.6527 35.3182H31.9034V34.8182ZM30.9489 33.5398L30.5463 33.8364L30.5482 33.8389L30.9489 33.5398ZM30.7102 33.2159L31.1128 32.9193L31.1077 32.9126L30.7102 33.2159ZM32.9219 32.0227L32.4739 31.8006L32.4739 31.8006L32.9219 32.0227ZM31.554 33.5739L31.8197 33.9974L31.8197 33.9974L31.554 33.5739ZM27.5824 33.5739L27.3166 33.9974L27.3166 33.9974L27.5824 33.5739ZM26.2145 32.0227L26.6625 31.8006L26.6625 31.8006L26.2145 32.0227ZM31.554 25.6989L31.8197 25.2753L31.8197 25.2753L31.554 25.6989ZM32.9219 27.25L32.4739 27.4721L32.4739 27.4721L32.9219 27.25ZM32.0185 27.723L31.5679 27.9397L31.5688 27.9417L32.0185 27.723ZM31 26.5426L30.7345 26.9663L30.7358 26.9671L31 26.5426ZM28.1321 26.5426L27.8679 26.1181L27.8666 26.1189L28.1321 26.5426ZM27.1136 27.723L26.664 27.5043L26.663 27.5063L27.1136 27.723ZM27.1136 31.5497L26.663 31.7664L26.664 31.7684L27.1136 31.5497ZM28.1321 32.7301L27.8666 33.1538L27.8679 33.1546L28.1321 32.7301ZM31 32.7301L30.7358 32.3056L30.7345 32.3064L31 32.7301ZM32.0185 31.5497L31.5688 31.331L31.5679 31.333L32.0185 31.5497ZM29.2273 31.7727H30.3864V30.7727H29.2273V31.7727ZM29.9883 31.5753L30.9599 32.8537L31.756 32.2486L30.7844 30.9702L29.9883 31.5753ZM30.958 32.8511L31.2136 33.192L32.0136 32.592L31.758 32.2511L30.958 32.8511ZM31.2141 33.1926L32.6629 35.1187L33.4621 34.5176L32.0132 32.5915L31.2141 33.1926ZM33.0625 34.3182H31.9034V35.3182H33.0625V34.3182ZM32.304 34.519L31.3495 33.2406L30.5482 33.8389L31.5028 35.1173L32.304 34.519ZM31.3514 33.2432L31.1128 32.9193L30.3077 33.5125L30.5463 33.8364L31.3514 33.2432ZM31.1077 32.9126L29.6247 30.9694L28.8298 31.5761L30.3128 33.5192L31.1077 32.9126ZM32.9205 29.6364C32.9205 30.4972 32.7651 31.2133 32.4739 31.8006L33.3698 32.2448C33.7434 31.4913 33.9205 30.6165 33.9205 29.6364H32.9205ZM32.4739 31.8006C32.1785 32.3964 31.7824 32.8403 31.2882 33.1503L31.8197 33.9974C32.4847 33.5802 33.0004 32.9899 33.3698 32.2448L32.4739 31.8006ZM31.2882 33.1503C30.7953 33.4596 30.2271 33.6193 29.5682 33.6193V34.6193C30.3979 34.6193 31.1536 34.4154 31.8197 33.9974L31.2882 33.1503ZM29.5682 33.6193C28.9093 33.6193 28.3411 33.4596 27.8481 33.1503L27.3166 33.9974C27.9828 34.4154 28.7384 34.6193 29.5682 34.6193V33.6193ZM27.8481 33.1503C27.354 32.8403 26.9578 32.3964 26.6625 31.8006L25.7665 32.2448C26.1359 32.9899 26.6517 33.5802 27.3166 33.9974L27.8481 33.1503ZM26.6625 31.8006C26.3713 31.2133 26.2159 30.4972 26.2159 29.6364H25.2159C25.2159 30.6165 25.3929 31.4913 25.7665 32.2448L26.6625 31.8006ZM26.2159 29.6364C26.2159 28.7756 26.3713 28.0595 26.6625 27.4721L25.7665 27.0279C25.3929 27.7815 25.2159 28.6563 25.2159 29.6364H26.2159ZM26.6625 27.4721C26.9578 26.8763 27.354 26.4324 27.8481 26.1224L27.3166 25.2753C26.6517 25.6926 26.1359 26.2828 25.7665 27.0279L26.6625 27.4721ZM27.8481 26.1224C28.3411 25.8131 28.9093 25.6534 29.5682 25.6534V24.6534C28.7384 24.6534 27.9828 24.8574 27.3166 25.2753L27.8481 26.1224ZM29.5682 25.6534C30.2271 25.6534 30.7953 25.8131 31.2882 26.1224L31.8197 25.2753C31.1536 24.8574 30.3979 24.6534 29.5682 24.6534V25.6534ZM31.2882 26.1224C31.7824 26.4324 32.1785 26.8763 32.4739 27.4721L33.3698 27.0279C33.0004 26.2828 32.4847 25.6926 31.8197 25.2753L31.2882 26.1224ZM32.4739 27.4721C32.7651 28.0595 32.9205 28.7756 32.9205 29.6364H33.9205C33.9205 28.6563 33.7434 27.7815 33.3698 27.0279L32.4739 27.4721ZM32.8977 29.6364C32.8977 28.8273 32.7626 28.11 32.4681 27.5043L31.5688 27.9417C31.78 28.3758 31.8977 28.9341 31.8977 29.6364H32.8977ZM32.4691 27.5063C32.1839 26.9133 31.7848 26.4422 31.2642 26.1181L30.7358 26.9671C31.0732 27.1771 31.353 27.4929 31.5679 27.9397L32.4691 27.5063ZM31.2655 26.1189C30.7557 25.7994 30.1855 25.642 29.5682 25.642V26.642C30.0077 26.642 30.3921 26.7517 30.7345 26.9663L31.2655 26.1189ZM29.5682 25.642C28.9508 25.642 28.3799 25.7994 27.8679 26.1181L28.3963 26.9671C28.7423 26.7517 29.1287 26.642 29.5682 26.642V25.642ZM27.8666 26.1189C27.3498 26.4428 26.9515 26.9131 26.664 27.5043L27.5633 27.9417C27.7814 27.4932 28.0622 27.1765 28.3976 26.9663L27.8666 26.1189ZM26.663 27.5063C26.3721 28.1114 26.2386 28.828 26.2386 29.6364H27.2386C27.2386 28.9334 27.3552 28.3744 27.5642 27.9397L26.663 27.5063ZM26.2386 29.6364C26.2386 30.4448 26.3721 31.1613 26.663 31.7664L27.5642 31.333C27.3552 30.8983 27.2386 30.3393 27.2386 29.6364H26.2386ZM26.664 31.7684C26.9515 32.3596 27.3498 32.8299 27.8666 33.1538L28.3976 32.3064C28.0622 32.0962 27.7814 31.7796 27.5633 31.331L26.664 31.7684ZM27.8679 33.1546C28.3799 33.4733 28.9508 33.6307 29.5682 33.6307V32.6307C29.1287 32.6307 28.7423 32.521 28.3963 32.3056L27.8679 33.1546ZM29.5682 33.6307C30.1855 33.6307 30.7557 33.4733 31.2655 33.1538L30.7345 32.3064C30.3921 32.521 30.0077 32.6307 29.5682 32.6307V33.6307ZM31.2642 33.1546C31.7848 32.8306 32.1839 32.3594 32.4691 31.7664L31.5679 31.333C31.353 31.7798 31.0732 32.0956 30.7358 32.3056L31.2642 33.1546ZM32.4681 31.7684C32.7626 31.1628 32.8977 30.4455 32.8977 29.6364H31.8977C31.8977 30.3386 31.78 30.8969 31.5688 31.331L32.4681 31.7684Z" fill="black" mask="url(#path-3-outside-1_33_5)"/>
</svg>
